<svg width="52" height="52" viewBox="0 0 52 52" fill="none" xmlns="http://www.w3.org/2000/svg">
<path d="M14.083 20.5834C14.083 14.002 19.4183 8.66675 25.9997 8.66675C32.5811 8.66675 37.9163 14.002 37.9163 20.5834V34.6667C37.9163 37.7308 37.9163 39.2629 36.9645 40.2149C36.0125 41.1667 34.4804 41.1667 31.4163 41.1667H20.583C17.5189 41.1667 15.9868 41.1667 15.0349 40.2149C14.083 39.2629 14.083 37.7308 14.083 34.6667V20.5834Z" stroke="#5A2D75" stroke-width="2"/>
<path d="M43.333 23.8333V36.8333" stroke="#5A2D75" stroke-width="2" stroke-linecap="round" stroke-linejoin="round"/>
<path d="M32.5 41.1667V47.6667" stroke="#5A2D75" stroke-width="2" stroke-linecap="round" stroke-linejoin="round"/>
<path d="M19.5 41.1667V47.6667" stroke="#5A2D75" stroke-width="2" stroke-linecap="round" stroke-linejoin="round"/>
<path d="M8.66699 23.8333V36.8333" stroke="#5A2D75" stroke-width="2" stroke-linecap="round" stroke-linejoin="round"/>
<path d="M21.667 8.66658L18.417 4.33325M30.3337 8.66658L33.5837 4.33325" stroke="#5A2D75" stroke-width="2" stroke-linecap="round" stroke-linejoin="round"/>
<path d="M14.083 21.6667H37.9163" stroke="#5A2D75" stroke-width="2" stroke-linecap="round" stroke-linejoin="round"/>
</svg>
